<?xml version="1.0" encoding="iso-8859-1"?>
<!-- Generator: Adobe Illustrator 19.0.0, SVG Export Plug-In . SVG Version: 6.00 Build 0)  -->
<svg xmlns="http://www.w3.org/2000/svg" xmlns:xlink="http://www.w3.org/1999/xlink" version="1.1" id="Layer_1" x="0px" y="0px" viewBox="0 0 512.001 512.001" style="enable-background:new 0 0 512.001 512.001;" xml:space="preserve" width="512px" height="512px">
<g>
	<g>
		<path d="M511.156,469.4L481.899,367c-2.692-9.419-11.302-15.914-21.099-15.914h-21.943V204.8h36.571    c9.669,0,18.199-6.33,21.001-15.584c2.801-9.254-0.784-19.253-8.83-24.615L268.171,18.315c-7.37-4.914-16.972-4.914-24.343,0    L24.399,164.601c-8.046,5.363-11.631,15.361-8.83,24.615c2.803,9.254,11.333,15.584,21.002,15.584h36.571v146.286H51.2    c-9.797,0-18.407,6.494-21.099,15.914L0.844,469.4c-1.891,6.621-0.566,13.745,3.58,19.242c4.147,5.497,10.633,8.729,17.519,8.729    h468.114c6.886,0,13.372-3.231,17.519-8.729C511.722,483.145,513.048,476.021,511.156,469.4z M180.419,351.086h-63.39V204.8h63.39    V351.086z M287.696,351.086h-63.391V204.8h63.391V351.086z M394.972,351.086h-63.39V204.8h63.39V351.086z" fill="#a1a1a1"/>
	</g>
</g>
<g>
</g>
<g>
</g>
<g>
</g>
<g>
</g>
<g>
</g>
<g>
</g>
<g>
</g>
<g>
</g>
<g>
</g>
<g>
</g>
<g>
</g>
<g>
</g>
<g>
</g>
<g>
</g>
<g>
</g>
</svg>
